<svg width="108" height="60" viewBox="0 0 108 60" fill="none" xmlns="http://www.w3.org/2000/svg">
<path d="M1.59217 40.3473L11.1844 34.3395C11.8859 33.8996 12.8126 34.1126 13.2521 34.8151C13.6917 35.5175 13.4793 36.4423 12.7765 36.8828L7.30426 40.3098C16.6275 41.0982 24.3249 42.1968 30.3284 43.6066C27.3097 27.208 35.1651 19.875 42.9441 16.5995C49.2948 13.9251 56.6204 13.8119 63.3826 16.1449C63.7973 15.2463 64.2577 14.3455 64.763 13.4448C68.916 6.04265 76.4837 1.2565 85.0067 0.641942C93.5487 0.0262301 101.747 3.68852 106.935 10.4376C107.336 10.9581 107.543 11.2659 107.543 11.2659C108.004 11.953 107.822 12.884 107.137 13.3464C106.451 13.8088 105.521 13.6297 105.057 12.9451C105.043 12.9248 104.873 12.6766 104.558 12.2665C99.9845 6.31758 92.7567 3.09073 85.2222 3.6343C77.708 4.17611 71.0379 8.39247 67.3794 14.9129C66.9391 15.6976 66.5367 16.4806 66.1725 17.2623C67.0014 17.6424 67.8181 18.0607 68.6193 18.5175C79.9114 24.9563 81.126 31.6129 80.1565 36.0635C79.3517 39.7561 76.493 42.6281 72.875 43.3791C70.3039 43.9134 67.7489 43.2884 65.487 41.5733C63.77 40.2715 62.4967 38.4477 61.805 36.2974C59.9842 30.6342 60.1348 24.811 62.2433 18.925C56.2195 16.886 49.7272 16.9984 44.108 19.3642C34.3555 23.4714 30.8189 31.8915 33.5493 44.4379C39.8919 46.2345 43.9005 48.4689 45.521 51.112C46.5089 52.7231 46.6556 54.4764 45.9451 56.1846C45.0459 58.3472 42.9006 59.7797 40.6077 59.7491C39.9731 59.7398 39.3788 59.6266 38.8206 59.4329C34.7261 58.0122 32.6854 52.2721 32.5884 51.9945C31.9659 50.1929 31.4517 48.4753 31.0378 46.8411C25.5649 45.4603 17.6842 44.1674 6.37869 43.2381L11.8042 48.2053C12.4153 48.7647 12.4575 49.7127 11.8981 50.3238C11.4814 50.7798 10.8482 50.9188 10.2992 50.7283C10.1119 50.6633 9.93467 50.5605 9.77953 50.4177L1.37592 42.7252C1.02988 42.4087 0.85236 41.9492 0.894197 41.483C0.937277 41.0163 1.19474 40.596 1.59217 40.3473ZM64.6608 35.3791C65.1556 36.9173 66.0923 38.2678 67.2993 39.1817C68.8724 40.3767 70.5438 40.7985 72.2649 40.4426C74.6872 39.9393 76.6806 37.9228 77.2254 35.4247C78.3086 30.4513 74.819 25.5058 67.1331 21.1235C66.4453 20.7314 65.7447 20.3704 65.0347 20.0409C63.191 25.2678 63.063 30.4078 64.6608 35.3791ZM35.4223 51.0097C35.9783 52.595 38.0005 56.7171 40.6481 56.7489C41.7097 56.7637 42.7491 56.0576 43.1753 55.0333C43.5145 54.2166 43.4474 53.4687 42.9632 52.6805C42.2262 51.4768 40.3128 49.8237 35.5466 48.1699C35.1813 48.0432 34.7996 47.9159 34.3999 47.7896C34.7018 48.8381 35.0417 49.9112 35.4223 51.0097Z" fill="url(#paint0_linear_1_4174)"/>
<defs>
<linearGradient id="paint0_linear_1_4174" x1="1.39597" y1="41.4039" x2="108.839" y2="9.35381" gradientUnits="userSpaceOnUse">
<stop stop-color="#425269"/>
<stop offset="1" stop-color="#425269" stop-opacity="0"/>
</linearGradient>
</defs>
</svg>
