<svg xmlns="http://www.w3.org/2000/svg" version="1.1" xmlns:xlink="http://www.w3.org/1999/xlink" width="31" height="32"><svg width="31" height="32" viewBox="0 0 31 32" fill="none" xmlns="http://www.w3.org/2000/svg">
<rect width="31" height="32" rx="15.5" fill="#FD6B22"></rect>
<path d="M9.80233 9.43475C11.3776 7.83084 12.951 6.22412 14.5299 4.62396C15.3477 3.79436 15.7469 3.78779 16.5692 4.62959C19.1591 7.28152 21.7317 9.95126 24.3298 12.5948C24.812 13.085 25.0071 13.6175 24.9998 14.3083C24.9743 16.7175 24.9907 19.1266 24.9898 21.5348C24.9889 22.9531 24.8512 23.1003 23.5038 23.1012C20.3798 23.1041 17.2548 23.1134 14.1307 23.0937C13.4397 23.0891 12.8635 23.27 12.3193 23.719C10.7358 25.0257 9.12683 26.2997 7.52604 27.5839C7.20697 27.8398 6.89976 28.1473 6.43666 27.9214C5.95715 27.687 6.05834 27.2352 6.05105 26.8293C6.03099 25.5779 6.01641 24.3264 6 23.075C6.01276 20.1615 6.04011 17.249 6.02735 14.3355C6.02461 13.6418 6.2279 13.1131 6.71014 12.6323C7.75941 11.587 8.77403 10.5034 9.80233 9.43475Z" fill="white"></path>
</svg><style>@media (prefers-color-scheme: light) { :root { filter: none; } }
@media (prefers-color-scheme: dark) { :root { filter: none; } }
</style></svg>