<svg width="101" height="36" viewBox="0 0 101 36" fill="none" xmlns="http://www.w3.org/2000/svg">
<path d="M26.1162 32.388L26.6624 31.473C27.1648 31.7536 27.6734 31.8939 28.1886 31.8939C29.1803 31.8939 30.0845 31.3754 30.9008 30.3384C31.7171 29.3013 32.4016 27.9227 32.9544 26.2024H20.5971L19.0526 28.4351C17.9098 30.0822 16.6038 31.2839 15.1345 32.0403C13.6652 32.7968 12.0261 33.175 10.2179 33.175C8.40947 33.175 7.08464 32.8394 6.24321 32.1685C5.41439 31.4974 5 30.7898 5 30.0456C5 29.2891 5.22601 28.6852 5.67813 28.2338C6.14276 27.7702 6.71415 27.5384 7.39228 27.5384C8.08297 27.5384 8.59159 27.7519 8.9181 28.1789C9.2446 28.5937 9.40785 29.1549 9.40785 29.8625C9.40785 30.558 9.06879 31.0826 8.39066 31.4364C8.42834 31.5584 8.56647 31.6804 8.80509 31.8024C9.05622 31.9122 9.39529 31.9671 9.82229 31.9671C10.2618 31.9671 10.6825 31.9183 11.0843 31.8207C11.486 31.7109 11.9509 31.4791 12.4783 31.1253C13.0057 30.7715 13.5585 30.2408 14.1362 29.5331C15.3792 28.0081 16.9303 25.6839 18.7886 22.5606C20.6474 19.4251 22.4555 16.8203 24.2136 14.7462C25.9844 12.6599 28.094 10.7932 30.5432 9.14619C29.8145 8.68258 28.923 8.31048 27.8682 8.02984C26.8134 7.74924 25.6264 7.60892 24.3082 7.60892C23.0021 7.60892 21.6331 7.84075 20.2014 8.30435C18.7825 8.75576 17.5767 9.37189 16.585 10.1527C15.6055 10.9336 14.7765 11.8547 14.0981 12.9161C12.7798 14.9536 12.1202 17.3327 12.1202 20.0534C12.1202 21.9201 12.4467 23.7562 13.0997 25.5619L11.8756 26.1292C10.469 23.9209 9.76578 21.5785 9.76578 19.1018C9.76578 17.4303 10.1048 15.832 10.783 14.307C11.4611 12.7819 12.4091 11.4277 13.6271 10.2443C14.8579 9.06081 16.4151 8.12134 18.2989 7.42591C20.1826 6.71832 22.2484 6.3645 24.4963 6.3645C26.1289 6.3645 27.2966 6.47429 27.9999 6.69391L29.3563 7.0965C29.8084 7.23074 30.3419 7.48085 30.9573 7.84683C31.5726 8.20065 31.8869 8.38366 31.8991 8.39586C33.1049 7.84683 34.1409 7.49301 35.0075 7.33441C35.8741 7.1636 36.8786 7.07822 38.0213 7.07822L38.4923 7.93833C36.4956 7.93833 34.6932 8.40198 33.0861 9.3292C34.5803 10.598 35.692 12.2207 36.4203 14.1972C37.1486 16.1736 37.5128 18.3453 37.5128 20.7122C37.5128 23.0669 37.1674 25.3118 36.4768 27.4469C35.7861 29.5697 34.8631 31.2534 33.7076 32.4979C32.5648 33.7423 31.3214 34.3645 29.9778 34.3645C28.6341 34.3645 27.3469 33.7057 26.1162 32.388ZM31.8991 10.171C29.7896 11.6961 28.063 13.4713 26.7193 15.4965C25.5511 17.2412 24.4648 19.0652 23.4604 20.9684C22.4682 22.8717 21.7399 24.2259 21.2751 25.0312H33.2931C33.8836 22.7375 34.1786 20.456 34.1786 18.1867C34.1786 14.429 33.4187 11.7571 31.8991 10.171ZM50.8495 32.7541H48.0616L48.4196 31.5462C48.5452 31.0704 48.771 30.375 49.0975 29.46C49.8258 27.4713 50.19 25.9218 50.19 24.8115C50.19 24.3357 49.9829 24.0978 49.5685 24.0978C49.0538 24.0978 48.4445 24.3968 47.7412 24.9946C47.0505 25.5802 46.3848 26.3 45.7445 27.154C44.677 28.5815 43.6222 30.1554 42.5802 31.8756L42.0523 32.7541H39.3965C39.3965 32.7541 39.5913 32.1806 39.9804 31.0338C41.0728 27.8617 41.6195 25.9828 41.6195 25.3972C41.6195 24.7994 41.5188 24.5005 41.3179 24.5005C40.9537 24.5005 40.5204 24.9214 40.018 25.7632C39.9051 25.9584 39.811 26.117 39.7357 26.239C39.66 26.3488 39.5724 26.4891 39.4718 26.6599C39.3838 26.8185 39.3273 26.9161 39.3024 26.9527L38.0401 26.239C39.0197 24.6896 39.9178 23.5488 40.734 22.8168C41.5503 22.0726 42.3854 21.7004 43.2393 21.7004C43.6283 21.7004 43.9614 21.8591 44.2376 22.1763C44.5265 22.4935 44.6709 22.8717 44.6709 23.3109C44.6709 23.7379 44.6455 24.1222 44.5956 24.4639C44.5453 24.7933 44.4888 25.0983 44.4258 25.3789C44.3632 25.6595 44.2752 25.995 44.1623 26.3854C44.0494 26.7759 43.9549 27.0747 43.8796 27.2821C43.817 27.4896 43.729 27.7702 43.6161 28.124C43.5027 28.4778 43.434 28.6852 43.4086 28.7462C43.6599 28.3192 44.0682 27.6787 44.6333 26.8246C45.1983 25.9706 45.5686 25.4338 45.7445 25.2142C45.9327 24.9824 46.1778 24.6896 46.4794 24.3357C46.7805 23.9697 47.0444 23.683 47.2702 23.4756C47.5088 23.2682 47.7915 23.0364 48.118 22.7802C48.4445 22.524 48.7522 22.3288 49.0411 22.1946C49.7444 21.8652 50.4539 21.7004 51.1695 21.7004C51.8978 21.7004 52.4505 21.9017 52.8274 22.3044C53.2042 22.6948 53.3924 23.1584 53.3924 23.6952C53.3924 24.2199 53.3044 24.7689 53.1285 25.3423C52.9652 25.9157 52.7333 26.5867 52.4317 27.3554C52.1302 28.1118 51.9359 28.6242 51.8479 28.8926C53.0532 26.9894 53.9763 25.6473 54.6166 24.8665C56.3625 22.7558 58.0891 21.7004 59.7969 21.7004C60.6386 21.7004 61.2412 21.8957 61.6054 22.2861C61.9695 22.6765 62.1516 23.2072 62.1516 23.8783C62.1516 24.5493 61.8566 25.6656 61.2662 27.2273C60.6762 28.7767 60.3807 29.7283 60.3807 30.0822C60.3807 30.436 60.4941 30.6129 60.7199 30.6129C61.2224 30.6129 62.0198 29.8381 63.1123 28.2887L63.9224 29.0207C63.1814 30.3018 62.3652 31.2961 61.4736 32.0037C60.5816 32.6992 59.8157 33.0469 59.1754 33.0469C58.5473 33.0469 58.1079 32.8456 57.8567 32.4429C57.6054 32.0403 57.4798 31.5645 57.4798 31.0155C57.4798 30.4543 57.7311 29.4722 58.2335 28.0691C58.736 26.6538 58.9872 25.568 58.9872 24.8115C58.9872 24.3357 58.767 24.0978 58.3276 24.0978C57.0719 24.0978 55.2574 25.8852 52.8838 29.46C51.917 30.9118 51.2386 32.0098 50.8495 32.7541ZM75.3374 22.1031H78.2764L76.7878 27.5749C76.5493 28.3436 76.4302 29.0451 76.4302 29.6795C76.4302 30.3018 76.5432 30.6129 76.769 30.6129C76.9953 30.6129 77.303 30.4238 77.692 30.0456C78.0938 29.6552 78.433 29.2647 78.7092 28.8743L79.1425 28.2887L79.9526 29.0207C79.5382 29.8016 79.0108 30.5153 78.3705 31.1619C77.127 32.4186 76.0473 33.0469 75.1303 33.0469C74.0502 33.0469 73.5105 32.2356 73.5105 30.6129C73.5105 30.3445 73.5228 30.1432 73.5482 30.0089C73.3595 30.6312 73.002 31.1802 72.4741 31.656C71.4696 32.5833 70.333 33.0469 69.0646 33.0469C67.8089 33.0469 66.7979 32.6321 66.032 31.8024C65.2788 30.9606 64.9019 29.9114 64.9019 28.6547C64.9019 26.7026 65.5549 25.0556 66.861 23.7135C68.167 22.3715 69.6988 21.7004 71.4569 21.7004C72.3362 21.7004 73.0645 21.9384 73.6423 22.4142C74.22 22.8778 74.5968 23.4878 74.7723 24.2442L75.3374 22.1031ZM72.1918 23.2743C71.4635 23.2743 70.779 23.5732 70.1387 24.1711C69.5106 24.7567 69.027 25.4704 68.6882 26.3122C68.349 27.1419 68.1797 27.9532 68.1797 28.7462C68.1797 29.5393 68.3552 30.1797 68.7071 30.6678C69.0712 31.1558 69.6235 31.3998 70.3645 31.3998C71.1182 31.3998 71.7962 31.0704 72.3988 30.4116C73.5416 29.1427 74.1132 27.636 74.1132 25.8913C74.1132 24.1466 73.4729 23.2743 72.1918 23.2743ZM86.0936 27.6116C88.7184 23.6708 91.0726 21.7004 93.1572 21.7004C93.8606 21.7004 94.388 21.9079 94.7399 22.3227C95.0913 22.7375 95.2673 23.2621 95.2673 23.8965C95.2673 24.531 94.9718 25.629 94.3819 27.1906C93.8041 28.7523 93.5153 29.7223 93.5153 30.1004C93.5153 30.4665 93.6093 30.6495 93.798 30.6495C94.0492 30.6495 94.4195 30.3994 94.9092 29.8992C95.399 29.3867 95.8323 28.8499 96.2091 28.2887L97 29.0207C96.2468 30.3506 95.4178 31.3571 94.5136 32.0403C93.6221 32.7114 92.8938 33.0469 92.3287 33.0469C91.7759 33.0469 91.3426 32.87 91.0288 32.5162C90.715 32.1501 90.5579 31.656 90.5579 31.0338C90.5579 30.4116 90.8091 29.3989 91.3116 27.9959C91.8263 26.5806 92.0836 25.5802 92.0836 24.9946C92.0836 24.3968 91.8766 24.0978 91.4621 24.0978C90.9851 24.0978 90.4196 24.3968 89.7666 24.9946C89.1136 25.5802 88.4794 26.3 87.864 27.154C86.8845 28.5205 85.8862 30.0944 84.869 31.8756L84.3604 32.7541H81.7047L82.2885 31.0338C83.3809 27.8617 83.9271 25.9828 83.9271 25.3972C83.9271 24.7994 83.8269 24.5005 83.626 24.5005C83.2619 24.5005 82.8286 24.9214 82.3261 25.7632C82.2132 25.9584 82.1187 26.117 82.0434 26.239C81.9681 26.3488 81.8801 26.4891 81.7799 26.6599C81.6919 26.8185 81.6355 26.9161 81.6101 26.9527L80.3483 26.239C81.3278 24.6896 82.2255 23.5488 83.0417 22.8168C83.858 22.0726 84.6931 21.7004 85.5474 21.7004C85.9365 21.7004 86.2691 21.8591 86.5458 22.1763C86.8346 22.4935 86.9791 22.8778 86.9791 23.3292C86.9791 23.7806 86.9409 24.226 86.8657 24.6651C86.7904 25.0922 86.709 25.4521 86.621 25.7449C86.5458 26.0255 86.439 26.3916 86.3007 26.843C86.175 27.2944 86.1059 27.5506 86.0936 27.6116Z" fill="#FD6B22"/>
<path d="M62.6456 7.079C64.2028 5.53714 65.7582 3.99258 67.319 2.45432C68.1273 1.6568 68.522 1.6505 69.3348 2.45972C71.895 5.00907 74.438 7.57554 77.0063 10.1168C77.483 10.5881 77.6758 11.0999 77.6686 11.7641C77.6434 14.08 77.6596 16.396 77.6587 18.711C77.6578 20.0744 77.5217 20.2159 76.1899 20.2168C73.1016 20.2195 70.0125 20.2285 66.9243 20.2096C66.2412 20.2051 65.6717 20.379 65.1337 20.8107C63.5684 22.0669 61.9779 23.2915 60.3955 24.5261C60.0801 24.7721 59.7764 25.0677 59.3186 24.8505C58.8446 24.6252 58.9446 24.1909 58.9374 23.8007C58.9176 22.5977 58.9032 21.3946 58.8869 20.1916C58.8996 17.3908 58.9266 14.591 58.914 11.7902C58.9113 11.1234 59.1122 10.6151 59.5889 10.1528C60.6261 9.14804 61.6291 8.10631 62.6456 7.079Z" fill="white"/>
<path d="M60.9368 6.21181C59.9203 7.23912 58.9174 8.28084 57.8801 9.28742C57.4034 9.74971 57.2025 10.258 57.2052 10.9248C57.2178 13.7247 57.1908 16.5254 57.1782 19.3262C53.7817 19.3271 50.3844 19.3298 46.988 19.3271C45.8525 19.3262 45.6948 19.1694 45.693 18.0484C45.6894 15.6702 45.7084 13.293 45.6813 10.9167C45.6741 10.2453 45.8958 9.7434 46.3662 9.27751C48.9101 6.757 51.4351 4.21577 53.9701 1.68625C54.8829 0.776094 55.2128 0.77339 56.1112 1.66553C57.426 2.97129 58.7317 4.28516 60.0429 5.59362C60.3033 5.85225 60.5304 6.16225 60.9368 6.21181Z" fill="white"/>
</svg>
